<svg width="89" height="60" xmlns="http://www.w3.org/2000/svg" xmlns:xlink="http://www.w3.org/1999/xlink" xml:space="preserve" overflow="hidden"><defs><clipPath id="clip0"><rect x="472" y="330" width="89" height="60"/></clipPath></defs><g clip-path="url(#clip0)" transform="translate(-472 -330)"><path d="M107.6 24.3C107.5 24.4 107.4 24.5 107.3 24.6 107.2 24.7 107.1 24.7 107 24.7 106.9 24.7 106.7 24.6 106.5 24.5 106.3 24.4 106.1 24.2 105.8 24.1 105.5 23.9 105.2 23.8 104.8 23.7 104.4 23.6 103.9 23.5 103.4 23.5 102.9 23.5 102.4 23.6 102.1 23.7 101.7 23.8 101.4 24 101.1 24.2 100.8 24.4 100.6 24.7 100.5 25 100.4 25.3 100.3 25.6 100.3 26 100.3 26.5 100.4 26.9 100.7 27.2 100.9 27.5 101.2 27.8 101.6 28 102 28.2 102.4 28.4 102.9 28.6 103.4 28.8 103.9 28.9 104.4 29.1 104.9 29.3 105.4 29.5 105.9 29.7 106.4 29.9 106.8 30.2 107.2 30.6 107.6 30.9 107.9 31.4 108.1 31.9 108.3 32.4 108.5 33 108.5 33.7 108.5 34.5 108.4 35.2 108.1 35.9 107.8 36.6 107.5 37.2 107 37.7 106.5 38.2 105.9 38.6 105.2 38.9 104.5 39.2 103.6 39.3 102.7 39.3 102.1 39.3 101.6 39.2 101.1 39.1 100.6 39 100.1 38.8 99.6 38.6 99.1 38.4 98.7 38.2 98.3 37.9 97.9 37.6 97.5 37.3 97.2 37L97.9 35.8C98 35.7 98.1 35.6 98.2 35.6 98.3 35.6 98.4 35.5 98.5 35.5 98.7 35.5 98.9 35.6 99.1 35.8 99.3 36 99.6 36.2 99.9 36.4 100.2 36.6 100.6 36.8 101.1 37 101.6 37.2 102.1 37.3 102.8 37.3 103.3 37.3 103.8 37.2 104.2 37.1 104.6 37 105 36.8 105.3 36.5 105.6 36.2 105.8 35.9 106 35.6 106.2 35.2 106.2 34.8 106.2 34.4 106.2 33.9 106.1 33.5 105.8 33.2 105.6 32.9 105.3 32.6 104.9 32.4 104.5 32.2 104.1 32 103.6 31.8 103.1 31.6 102.6 31.5 102.1 31.3 101.6 31.1 101.1 30.9 100.6 30.7 100.1 30.5 99.7 30.2 99.3 29.8 98.9 29.4 98.6 29 98.4 28.5 98.2 28 98 27.3 98 26.5 98 25.9 98.1 25.3 98.4 24.7 98.6 24.1 99 23.6 99.5 23.2 100 22.8 100.5 22.4 101.2 22.1 101.9 21.8 102.7 21.7 103.5 21.7 104.5 21.7 105.4 21.9 106.2 22.2 107 22.5 107.7 23 108.3 23.5L107.6 24.3Z" fill="#12233B" transform="matrix(1.0069 0 0 1 472.201 330)"/><path d="M122.2 36.7 122.2 38.8 111.4 38.8 111.4 21.4 122.2 21.4 122.2 23.5 114 23.5 114 29 120.6 29 120.6 31 114 31 114 36.7 122.2 36.7Z" fill="#12233B" transform="matrix(1.0069 0 0 1 472.201 330)"/><path d="M142.9 21.4 142.9 38.8 140.7 38.8 140.7 26.5C140.7 26.3 140.7 26.1 140.7 25.9 140.7 25.7 140.7 25.5 140.7 25.3L134.9 35.9C134.7 36.3 134.4 36.5 134 36.5L133.6 36.5C133.2 36.5 132.9 36.3 132.7 35.9L126.8 25.3C126.8 25.8 126.9 26.2 126.9 26.6L126.9 39 124.6 39 124.6 21.4 126.5 21.4C126.7 21.4 126.9 21.4 127 21.5 127.1 21.5 127.2 21.7 127.4 21.9L133.2 32.3C133.3 32.5 133.4 32.7 133.5 33 133.6 33.2 133.7 33.5 133.8 33.7 134 33.2 134.2 32.8 134.4 32.3L140.1 21.9C140.2 21.7 140.3 21.6 140.4 21.5 140.5 21.5 140.7 21.4 140.9 21.4L142.9 21.4Z" fill="#12233B" transform="matrix(1.0069 0 0 1 472.201 330)"/><path d="M161.2 38.8 159.2 38.8C159 38.8 158.8 38.7 158.6 38.6 158.5 38.5 158.4 38.3 158.3 38.2L156.8 34.2 149.1 34.2 147.6 38.2C147.5 38.4 147.4 38.5 147.3 38.6 147.1 38.7 147 38.8 146.7 38.8L144.7 38.8 151.6 21.4 154.2 21.4 161.2 38.8ZM156.1 32.3 153.5 25.6C153.3 25.1 153.1 24.6 152.9 23.9 152.8 24.2 152.7 24.6 152.6 24.9 152.5 25.2 152.4 25.5 152.3 25.7L149.7 32.4 156.1 32.4Z" fill="#12233B" transform="matrix(1.0069 0 0 1 472.201 330)"/><path d="M177.3 21.4 177.3 38.8 176 38.8C175.8 38.8 175.6 38.8 175.5 38.7 175.4 38.6 175.2 38.5 175.1 38.3L165.3 25.6C165.3 25.8 165.3 26 165.3 26.2 165.3 26.4 165.3 26.6 165.3 26.8L165.3 38.7 163 38.7 163 21.4 164.3 21.4C164.5 21.4 164.7 21.4 164.8 21.5 164.9 21.6 165 21.7 165.2 21.9L175 34.6C175 34.4 175 34.1 174.9 33.9 174.9 33.7 174.9 33.5 174.9 33.3L174.9 21.4 177.3 21.4Z" fill="#12233B" transform="matrix(1.0069 0 0 1 472.201 330)"/><path d="M193 23.6 187.5 23.6 187.5 38.8 184.9 38.8 184.9 23.6 179.4 23.6 179.4 21.4 193 21.4 193 23.6Z" fill="#12233B" transform="matrix(1.0069 0 0 1 472.201 330)"/><path d="M197.6 38.8 195 38.8 195 21.4 197.6 21.4 197.6 38.8Z" fill="#12233B" transform="matrix(1.0069 0 0 1 472.201 330)"/><path d="M213.7 35.1C213.8 35.1 214 35.2 214.1 35.3L215.1 36.4C214.4 37.2 213.5 37.9 212.5 38.3 211.5 38.8 210.3 39 208.8 39 207.5 39 206.4 38.8 205.4 38.3 204.4 37.8 203.5 37.3 202.8 36.5 202.1 35.7 201.5 34.8 201.1 33.7 200.7 32.6 200.5 31.4 200.5 30.1 200.5 28.8 200.7 27.6 201.1 26.5 201.5 25.4 202.1 24.5 202.8 23.7 203.5 22.9 204.4 22.3 205.5 21.9 206.5 21.5 207.7 21.2 209 21.2 210.2 21.2 211.3 21.4 212.3 21.8 213.3 22.2 214.1 22.7 214.8 23.4L214 24.6C213.9 24.7 213.9 24.8 213.8 24.8 213.7 24.9 213.6 24.9 213.5 24.9 213.3 24.9 213.2 24.8 213 24.7 212.8 24.5 212.5 24.4 212.2 24.2 211.9 24 211.5 23.8 211 23.7 210.5 23.5 209.9 23.5 209.2 23.5 208.3 23.5 207.5 23.7 206.8 24 206.1 24.3 205.5 24.7 204.9 25.3 204.4 25.9 204 26.6 203.7 27.4 203.4 28.2 203.3 29.2 203.3 30.2 203.3 31.3 203.4 32.2 203.7 33 204 33.8 204.4 34.5 204.9 35.1 205.4 35.7 206 36.1 206.8 36.4 207.5 36.7 208.3 36.8 209.1 36.8 209.6 36.8 210 36.8 210.4 36.7 210.8 36.6 211.2 36.5 211.5 36.4 211.8 36.3 212.2 36.1 212.4 35.9 212.7 35.7 213 35.5 213.3 35.2 213.4 35.1 213.4 35.1 213.5 35.1 213.6 35.1 213.6 35.1 213.7 35.1Z" fill="#12233B" transform="matrix(1.0069 0 0 1 472.201 330)"/><path d="M233.2 24.8C233.1 25 233 25.1 232.8 25.2 232.7 25.3 232.5 25.3 232.3 25.3 232.1 25.3 231.9 25.2 231.7 25.1 231.5 25 231.2 24.9 231 24.7 230.7 24.6 230.4 24.4 230.1 24.3 229.8 24.2 229.4 24.1 228.9 24.1 228.1 24.1 227.6 24.3 227.2 24.6 226.8 24.9 226.6 25.4 226.6 25.9 226.6 26.3 226.7 26.5 226.9 26.8 227.1 27 227.4 27.2 227.8 27.4 228.2 27.6 228.6 27.7 229.1 27.9 229.6 28 230.1 28.2 230.5 28.4 231 28.6 231.5 28.8 231.9 29 232.4 29.2 232.8 29.5 233.2 29.9 233.6 30.3 233.9 30.7 234.1 31.2 234.3 31.7 234.4 32.3 234.4 33.1 234.4 33.9 234.3 34.7 234 35.4 233.7 36.1 233.3 36.7 232.8 37.3 232.3 37.8 231.6 38.2 230.8 38.5 230 38.8 229.1 39 228.1 39 227.6 39 227 38.9 226.4 38.8 225.8 38.7 225.3 38.5 224.8 38.3 224.3 38.1 223.8 37.9 223.3 37.6 222.8 37.3 222.4 37 222.1 36.7L223.3 34.8C223.4 34.7 223.5 34.5 223.7 34.5 223.9 34.4 224 34.4 224.2 34.4 224.4 34.4 224.7 34.5 224.9 34.6 225.1 34.8 225.4 34.9 225.7 35.1 226 35.3 226.4 35.5 226.8 35.6 227.2 35.8 227.7 35.8 228.2 35.8 228.9 35.8 229.5 35.6 229.9 35.3 230.3 35 230.5 34.5 230.5 33.7 230.5 33.3 230.4 33 230.2 32.7 230 32.4 229.7 32.2 229.3 32.1 228.9 31.9 228.5 31.8 228 31.7 227.5 31.6 227.1 31.4 226.6 31.3 226.1 31.1 225.6 30.9 225.2 30.7 224.7 30.5 224.3 30.2 223.9 29.8 223.5 29.4 223.2 29 223 28.4 222.8 27.8 222.7 27.1 222.7 26.3 222.7 25.6 222.8 25 223.1 24.4 223.4 23.8 223.8 23.2 224.3 22.7 224.8 22.2 225.4 21.8 226.2 21.5 226.9 21.2 227.8 21.1 228.8 21.1 229.3 21.1 229.9 21.1 230.4 21.2 230.9 21.3 231.4 21.4 231.9 21.6 232.4 21.8 232.8 22 233.2 22.2 233.6 22.4 234 22.7 234.3 23L233.2 24.8Z" fill="#12233B" transform="matrix(1.0069 0 0 1 472.201 330)"/><path d="M248.4 34.2C248.5 34.2 248.6 34.2 248.7 34.3 248.8 34.3 248.9 34.4 249 34.5L250.6 36.2C249.9 37.1 249 37.8 247.9 38.3 246.8 38.8 245.6 39 244.1 39 242.8 39 241.6 38.8 240.5 38.3 239.4 37.8 238.5 37.2 237.8 36.4 237.1 35.6 236.5 34.6 236.1 33.5 235.7 32.4 235.5 31.2 235.5 29.9 235.5 28.6 235.7 27.4 236.1 26.3 236.5 25.2 237.1 24.3 237.9 23.5 238.7 22.7 239.6 22.1 240.7 21.6 241.8 21.2 243 20.9 244.3 20.9 245 20.9 245.6 21 246.2 21.1 246.8 21.2 247.3 21.4 247.8 21.6 248.3 21.8 248.8 22.1 249.2 22.3 249.6 22.6 250 22.9 250.3 23.2L248.9 25C248.8 25.1 248.7 25.2 248.6 25.3 248.5 25.4 248.3 25.4 248.1 25.4 248 25.4 247.8 25.4 247.7 25.3 247.6 25.2 247.4 25.2 247.3 25.1 247.2 25 247 24.9 246.8 24.8 246.6 24.7 246.4 24.6 246.2 24.5 246 24.4 245.7 24.3 245.4 24.3 245.1 24.3 244.7 24.2 244.3 24.2 243.6 24.2 243 24.3 242.4 24.6 241.8 24.8 241.4 25.2 240.9 25.7 240.5 26.2 240.2 26.8 240 27.5 239.8 28.2 239.7 29 239.7 29.9 239.7 30.8 239.8 31.6 240.1 32.3 240.3 33 240.7 33.6 241.1 34.1 241.5 34.6 242 34.9 242.6 35.2 243.2 35.4 243.8 35.6 244.4 35.6 244.8 35.6 245.1 35.6 245.4 35.5 245.7 35.5 246 35.4 246.3 35.3 246.6 35.2 246.8 35.1 247 35 247.2 34.9 247.5 34.7 247.7 34.5 247.8 34.4 247.9 34.4 248 34.3 248.2 34.3 248.3 34.2 248.4 34.2Z" fill="#12233B" transform="matrix(1.0069 0 0 1 472.201 330)"/><path d="M267.4 21.2 267.4 38.8 263.3 38.8 263.3 31.4 256.1 31.4 256.1 38.8 252 38.8 252 21.2 256.1 21.2 256.1 28.6 263.3 28.6 263.3 21.2 267.4 21.2Z" fill="#12233B" transform="matrix(1.0069 0 0 1 472.201 330)"/><path d="M287.9 30C287.9 31.3 287.7 32.5 287.2 33.6 286.8 34.7 286.1 35.6 285.3 36.5 284.5 37.3 283.5 37.9 282.4 38.4 281.3 38.9 280 39.1 278.7 39.1 277.3 39.1 276.1 38.9 275 38.4 273.9 37.9 272.9 37.3 272.1 36.5 271.3 35.7 270.7 34.7 270.2 33.6 269.8 32.5 269.5 31.3 269.5 30 269.5 28.7 269.7 27.5 270.2 26.4 270.7 25.3 271.3 24.4 272.1 23.5 272.9 22.7 273.9 22.1 275 21.6 276.1 21.1 277.4 20.9 278.7 20.9 280.1 20.9 281.3 21.1 282.4 21.6 283.5 22.1 284.5 22.7 285.3 23.5 286.1 24.3 286.7 25.3 287.2 26.4 287.6 27.5 287.9 28.7 287.9 30ZM283.7 30C283.7 29.1 283.6 28.3 283.4 27.6 283.2 26.9 282.9 26.3 282.4 25.8 281.9 25.3 281.5 24.9 280.8 24.7 280.2 24.4 279.5 24.3 278.7 24.3 277.9 24.3 277.2 24.4 276.6 24.7 276 25 275.5 25.3 275 25.8 274.6 26.3 274.3 26.9 274 27.6 273.8 28.3 273.7 29.1 273.7 30 273.7 30.9 273.8 31.7 274 32.4 274.2 33.1 274.5 33.7 275 34.2 275.4 34.7 275.9 35.1 276.6 35.3 277.2 35.6 277.9 35.7 278.7 35.7 279.5 35.7 280.2 35.6 280.8 35.3 281.4 35 281.9 34.7 282.4 34.2 282.9 33.7 283.1 33.1 283.4 32.4 283.6 31.7 283.7 30.9 283.7 30Z" fill="#12233B" transform="matrix(1.0069 0 0 1 472.201 330)"/><path d="M300.7 35.5 300.7 38.8 290.1 38.8 290.1 21.2 294.2 21.2 294.2 35.5 300.7 35.5Z" fill="#12233B" transform="matrix(1.0069 0 0 1 472.201 330)"/><path d="M319 38.8 315.8 38.8C315.4 38.8 315.2 38.7 314.9 38.6 314.7 38.4 314.5 38.2 314.4 38L313.4 34.9 306.7 34.9 305.7 38C305.6 38.2 305.5 38.4 305.2 38.6 305 38.8 304.7 38.9 304.3 38.9L301.1 38.9 307.9 21.3 312.1 21.3 319 38.8ZM312.5 32.1 310.9 27.3C310.8 27 310.7 26.6 310.5 26.2 310.4 25.8 310.2 25.3 310.1 24.9 310 25.4 309.9 25.8 309.7 26.3 309.6 26.7 309.4 27.1 309.3 27.4L307.7 32.2 312.5 32.2Z" fill="#12233B" transform="matrix(1.0069 0 0 1 472.201 330)"/><path d="M334.6 38.8 330.9 38.8C330.2 38.8 329.7 38.5 329.4 38L326.5 32.9C326.4 32.7 326.2 32.5 326 32.4 325.8 32.3 325.6 32.2 325.3 32.2L324.3 32.2 324.3 38.7 320.2 38.7 320.2 21.2 325.9 21.2C327.2 21.2 328.3 21.3 329.2 21.6 330.1 21.9 330.8 22.2 331.4 22.7 332 23.2 332.4 23.7 332.6 24.4 332.9 25 333 25.7 333 26.5 333 27.1 332.9 27.6 332.8 28.1 332.6 28.6 332.4 29.1 332.1 29.5 331.8 29.9 331.4 30.3 331 30.7 330.6 31 330.1 31.3 329.5 31.5 329.8 31.6 330 31.8 330.2 32 330.4 32.2 330.6 32.4 330.8 32.7L334.6 38.8ZM325.9 29.5C326.5 29.5 326.9 29.4 327.3 29.3 327.7 29.2 328 29 328.3 28.7 328.5 28.5 328.7 28.2 328.8 27.8 328.9 27.5 329 27.1 329 26.7 329 25.9 328.7 25.3 328.2 24.9 327.7 24.5 326.9 24.2 325.9 24.2L324.3 24.2 324.3 29.4 325.9 29.4Z" fill="#12233B" transform="matrix(1.0069 0 0 1 472.201 330)"/><path d="M83.2 18.3C80.3 20.1 78.2 21.2 75.8 22.6 61.4 31.3 47.5 41 36.8 53.7L31.6 60 15.8 34.8C19.3 37.6 28.2 45.5 31.8 47.3L43.4 38.5C51.5 32.8 74.4 20.4 83.2 18.3Z" fill="#F3D25E" fill-rule="evenodd" transform="matrix(1.0069 0 0 1 472.201 330)"/><path d="M23.2 37.1C23.6 37.4 23.9 37.7 24.3 38 21.2 29.3 15.7 20.6 7.9 13.1 5.3 13.1 2.7 13.1 1.77636e-15 13.1 10 20.3 17.8 28.7 23.2 37.1Z" fill="#638BC4" transform="matrix(1.0069 0 0 1 472.201 330)"/><path d="M25.8 39.4C26.1 39.7 26.5 39.9 26.8 40.2 26.3 28.4 21.9 16.3 13.5 5.9 11 5.9 8.5 5.9 6 5.9 16.7 15.8 23.3 27.8 25.8 39.4Z" fill="#305CA5" transform="matrix(1.0069 0 0 1 472.201 330)"/><path d="M27.9 41.1C29.1 42.1 30.3 43 31.3 43.7 33.9 31 31.7 17.3 24.8 5.4 36.5 5.2 48.2 5.1 59.8 4.9 62.4 10.7 63.9 16.9 64.3 23.3 65.3 22.8 66.3 22.3 67.4 21.8 66.9 15.2 65.1 8.2 61.6 0 45.6 0 29.7 0 13.7 0 24.1 12.3 28.8 27.2 27.9 41.1Z" fill="#273D72" transform="matrix(1.0069 0 0 1 472.201 330)"/></g></svg>